<svg width="27" height="27" viewBox="0 0 27 27" fill="none" xmlns="http://www.w3.org/2000/svg">
<path d="M23.9414 21.0817C23.3729 19.7352 22.548 18.5122 21.5126 17.4807C20.4803 16.4462 19.2575 15.6215 17.9116 15.0519C17.8995 15.0459 17.8875 15.0429 17.8754 15.0368C19.7528 13.6808 20.9732 11.472 20.9732 8.97993C20.9732 4.85158 17.6283 1.50671 13.5 1.50671C9.37164 1.50671 6.02677 4.85158 6.02677 8.97993C6.02677 11.472 7.2472 13.6808 9.12454 15.0399C9.11249 15.0459 9.10043 15.0489 9.08838 15.0549C7.73838 15.6245 6.527 16.4411 5.48738 17.4837C4.45291 18.516 3.62813 19.7389 3.05858 21.0847C2.49906 22.4023 2.1973 23.815 2.16963 25.2462C2.16883 25.2784 2.17447 25.3104 2.18622 25.3403C2.19798 25.3703 2.21561 25.3976 2.23807 25.4206C2.26054 25.4436 2.28739 25.4619 2.31703 25.4744C2.34668 25.4869 2.37853 25.4933 2.4107 25.4933H4.21874C4.35133 25.4933 4.4568 25.3879 4.45981 25.2583C4.52008 22.9319 5.45423 20.7533 7.10557 19.1019C8.81416 17.3933 11.0832 16.4531 13.5 16.4531C15.9167 16.4531 18.1858 17.3933 19.8944 19.1019C21.5457 20.7533 22.4799 22.9319 22.5402 25.2583C22.5432 25.3909 22.6486 25.4933 22.7812 25.4933H24.5893C24.6214 25.4933 24.6533 25.4869 24.6829 25.4744C24.7126 25.4619 24.7394 25.4436 24.7619 25.4206C24.7844 25.3976 24.802 25.3703 24.8138 25.3403C24.8255 25.3104 24.8312 25.2784 24.8303 25.2462C24.8002 23.8058 24.5019 22.4046 23.9414 21.0817ZM13.5 14.163C12.1168 14.163 10.8151 13.6236 9.8357 12.6442C8.85635 11.6649 8.31695 10.3631 8.31695 8.97993C8.31695 7.59678 8.85635 6.295 9.8357 5.31564C10.8151 4.33629 12.1168 3.79689 13.5 3.79689C14.8831 3.79689 16.1849 4.33629 17.1643 5.31564C18.1436 6.295 18.683 7.59678 18.683 8.97993C18.683 10.3631 18.1436 11.6649 17.1643 12.6442C16.1849 13.6236 14.8831 14.163 13.5 14.163Z" fill="black"/>
</svg>
