<svg width="28" height="36" viewBox="0 0 28 36" fill="none" xmlns="http://www.w3.org/2000/svg">
<path d="M25.25 4.25H21.5V3C21.5 2.33696 21.2366 1.70107 20.7678 1.23223C20.2989 0.763392 19.663 0.5 19 0.5H9C8.33696 0.5 7.70107 0.763392 7.23223 1.23223C6.76339 1.70107 6.5 2.33696 6.5 3V4.25H2.75C2.08696 4.25 1.45107 4.51339 0.982233 4.98223C0.513392 5.45107 0.25 6.08696 0.25 6.75V33C0.25 33.663 0.513392 34.2989 0.982233 34.7678C1.45107 35.2366 2.08696 35.5 2.75 35.5H25.25C25.913 35.5 26.5489 35.2366 27.0178 34.7678C27.4866 34.2989 27.75 33.663 27.75 33V6.75C27.75 6.08696 27.4866 5.45107 27.0178 4.98223C26.5489 4.51339 25.913 4.25 25.25 4.25ZM9 3H19V8H9V3ZM25.25 33H2.75V6.75H6.5V10.5H21.5V6.75H25.25V33Z" fill="white"/>
</svg>
