<svg width="12" height="14" viewBox="0 0 12 14" fill="none" xmlns="http://www.w3.org/2000/svg">
<path d="M0 12.6875C0 13.4121 0.575893 14 1.28571 14H10.7143C11.4241 14 12 13.4121 12 12.6875V5.25H0V12.6875ZM8.57143 7.32812C8.57143 7.14766 8.71607 7 8.89286 7H9.96429C10.1411 7 10.2857 7.14766 10.2857 7.32812V8.42188C10.2857 8.60234 10.1411 8.75 9.96429 8.75H8.89286C8.71607 8.75 8.57143 8.60234 8.57143 8.42188V7.32812ZM8.57143 10.8281C8.57143 10.6477 8.71607 10.5 8.89286 10.5H9.96429C10.1411 10.5 10.2857 10.6477 10.2857 10.8281V11.9219C10.2857 12.1023 10.1411 12.25 9.96429 12.25H8.89286C8.71607 12.25 8.57143 12.1023 8.57143 11.9219V10.8281ZM5.14286 7.32812C5.14286 7.14766 5.2875 7 5.46429 7H6.53571C6.7125 7 6.85714 7.14766 6.85714 7.32812V8.42188C6.85714 8.60234 6.7125 8.75 6.53571 8.75H5.46429C5.2875 8.75 5.14286 8.60234 5.14286 8.42188V7.32812ZM5.14286 10.8281C5.14286 10.6477 5.2875 10.5 5.46429 10.5H6.53571C6.7125 10.5 6.85714 10.6477 6.85714 10.8281V11.9219C6.85714 12.1023 6.7125 12.25 6.53571 12.25H5.46429C5.2875 12.25 5.14286 12.1023 5.14286 11.9219V10.8281ZM1.71429 7.32812C1.71429 7.14766 1.85893 7 2.03571 7H3.10714C3.28393 7 3.42857 7.14766 3.42857 7.32812V8.42188C3.42857 8.60234 3.28393 8.75 3.10714 8.75H2.03571C1.85893 8.75 1.71429 8.60234 1.71429 8.42188V7.32812ZM1.71429 10.8281C1.71429 10.6477 1.85893 10.5 2.03571 10.5H3.10714C3.28393 10.5 3.42857 10.6477 3.42857 10.8281V11.9219C3.42857 12.1023 3.28393 12.25 3.10714 12.25H2.03571C1.85893 12.25 1.71429 12.1023 1.71429 11.9219V10.8281ZM10.7143 1.75H9.42857V0.4375C9.42857 0.196875 9.23571 0 9 0H8.14286C7.90714 0 7.71429 0.196875 7.71429 0.4375V1.75H4.28571V0.4375C4.28571 0.196875 4.09286 0 3.85714 0H3C2.76429 0 2.57143 0.196875 2.57143 0.4375V1.75H1.28571C0.575893 1.75 0 2.33789 0 3.0625V4.375H12V3.0625C12 2.33789 11.4241 1.75 10.7143 1.75Z" fill="#565656"/>
</svg>
