<svg width="27" height="28" viewBox="0 0 27 28" fill="none" xmlns="http://www.w3.org/2000/svg">
<path d="M26.6 11.2107H13.6964V16.5143H21.0679C20.75 18.2286 19.7857 19.6786 18.3321 20.65C17.1036 21.4714 15.5357 21.9571 13.6929 21.9571C10.125 21.9571 7.10714 19.5464 6.02857 16.3071C5.75714 15.4857 5.6 14.6071 5.6 13.7036C5.6 12.8 5.75714 11.9214 6.02857 11.1C7.11071 7.86429 10.1286 5.45357 13.6964 5.45357C15.7071 5.45357 17.5107 6.14643 18.9321 7.50357L22.8607 3.57143C20.4857 1.35714 17.3893 0 13.6964 0C8.34286 0 3.71071 3.07143 1.45714 7.55C0.528572 9.4 0 11.4929 0 13.7071C0 15.9214 0.528572 18.0107 1.45714 19.8607C3.71071 24.3393 8.34286 27.4107 13.6964 27.4107C17.3964 27.4107 20.4964 26.1821 22.7607 24.0893C25.35 21.7036 26.8464 18.1893 26.8464 14.0143C26.8464 13.0429 26.7607 12.1107 26.6 11.2107Z" fill="black"/>
</svg>
