<svg width="27" height="27" viewBox="0 0 27 27" fill="none" xmlns="http://www.w3.org/2000/svg">
<path d="M23.1429 12.0536H21.0937V5.30355C21.0937 3.17309 19.3671 1.44641 17.2366 1.44641H9.76339C7.63292 1.44641 5.90625 3.17309 5.90625 5.30355V12.0536H3.85714C3.32377 12.0536 2.89285 12.4845 2.89285 13.0178V24.5893C2.89285 25.1226 3.32377 25.5536 3.85714 25.5536H23.1429C23.6762 25.5536 24.1071 25.1226 24.1071 24.5893V13.0178C24.1071 12.4845 23.6762 12.0536 23.1429 12.0536ZM8.07589 5.30355C8.07589 4.37242 8.83225 3.61605 9.76339 3.61605H17.2366C18.1677 3.61605 18.9241 4.37242 18.9241 5.30355V12.0536H8.07589V5.30355ZM21.9375 23.3839H5.0625V14.2232H21.9375V23.3839ZM12.6562 19.1953V20.7924C12.6562 20.925 12.7647 21.0335 12.8973 21.0335H14.1027C14.2353 21.0335 14.3437 20.925 14.3437 20.7924V19.1953C14.5925 19.0167 14.7782 18.7638 14.874 18.473C14.9699 18.1821 14.971 17.8684 14.8772 17.5769C14.7834 17.2854 14.5995 17.0312 14.352 16.8509C14.1045 16.6705 13.8062 16.5734 13.5 16.5734C13.1938 16.5734 12.8955 16.6705 12.648 16.8509C12.4005 17.0312 12.2166 17.2854 12.1228 17.5769C12.029 17.8684 12.0301 18.1821 12.126 18.473C12.2218 18.7638 12.4075 19.0167 12.6562 19.1953Z" fill="black"/>
</svg>
