<svg width="35" height="32" viewBox="0 0 35 32" fill="none" xmlns="http://www.w3.org/2000/svg">
<path d="M34.5464 16.2603L18.7981 0.498849C18.1349 -0.166283 16.8611 -0.166283 16.1979 0.498849L0.449671 16.2603C0.222995 16.4866 0.0742065 16.7674 0.0213967 17.0685C-0.0314131 17.3695 0.0140312 17.678 0.152204 17.9562C0.432173 18.5252 1.0586 18.8909 1.74978 18.8909H5.24938V29.9239C5.24938 30.3419 5.43374 30.7428 5.76189 31.0384C6.09004 31.3339 6.53511 31.5 6.99919 31.5H12.2486C12.7127 31.5 13.1577 31.3339 13.4859 31.0384C13.8141 30.7428 13.9984 30.3419 13.9984 29.9239V23.6193H20.9976V29.9239C20.9976 30.3419 21.182 30.7428 21.5101 31.0384C21.8383 31.3339 22.2834 31.5 22.7474 31.5H27.9968C28.4609 31.5 28.906 31.3339 29.2341 31.0384C29.5623 30.7428 29.7466 30.3419 29.7466 29.9239V18.8909H33.2463C33.5851 18.8922 33.9171 18.8046 34.2017 18.6389C34.4863 18.4732 34.7112 18.2365 34.8491 17.9576C34.9869 17.6787 35.0316 17.3698 34.9779 17.0684C34.9241 16.767 34.7742 16.4862 34.5464 16.2603Z" fill="white"/>
</svg>
